Coordinates
version=1
nRows=17
nColumns=40
inDegrees=yes

Units are S.I. units (second, meters, Newtons, ...)
Angles are in degrees.

endheader
time	pelvis_tilt	pelvis_list	pelvis_rotation	pelvis_tx	pelvis_ty	pelvis_tz	hip_flexion_r	hip_adduction_r	hip_rotation_r	knee_angle_r	knee_angle_r_beta	ankle_angle_r	subtalar_angle_r	mtp_angle_r	hip_flexion_l	hip_adduction_l	hip_rotation_l	knee_angle_l	knee_angle_l_beta	ankle_angle_l	subtalar_angle_l	mtp_angle_l	lumbar_extension	lumbar_bending	lumbar_rotation	arm_flex_r	arm_add_r	arm_rot_r	elbow_flex_r	pro_sup_r	wrist_flex_r	wrist_dev_r	arm_flex_l	arm_add_l	arm_rot_l	elbow_flex_l	pro_sup_l	wrist_flex_l	wrist_dev_l
     19.13664286	     -2.72592374	     -2.12284680	     -3.38931630	      1.04726012	      0.92044591	      0.41824364	     27.88596399	     -3.92067120	    -15.79733694	     10.80733345	     10.80733345	      2.13950153	      8.71515503	     13.29443527	     -4.15928911	     -1.24532720	    -14.31582872	      9.96729652	      9.96729652	     17.87510109	     -1.63860558	     -8.06896651	    -11.22949686	      3.44445471	      1.58006626	    -19.77304296	    -14.73735514	     -2.67746949	     27.81522754	     46.60631352	      0.00000000	      0.00000000	     27.17282096	    -20.71967179	      0.61925394	     95.97629585	     47.43431461	      0.00000000	      0.00000000
     19.14828571	     -2.70922326	     -2.09855104	     -3.14957426	      1.04908464	      0.91856012	      0.41944879	     27.68617541	     -3.85647797	    -15.64944613	     11.83631536	     11.83631536	      1.84621203	      7.66306061	     11.71427730	     -4.78511181	     -1.34238021	    -14.21567619	     10.17046948	     10.17046948	     18.64876946	     -1.31479778	     -7.69276305	    -10.99828572	      3.46207800	      1.42694273	    -21.23148960	    -14.62778163	     -2.91456094	     28.17918993	     46.58491998	      0.00000000	      0.00000000	     27.30459340	    -20.83387084	      0.14121713	     97.45570409	     47.51595455	      0.00000000	      0.00000000
     19.15992857	     -2.65647311	     -2.15851507	     -2.83028483	      1.05109110	      0.91681033	      0.42084390	     27.16005651	     -3.61452617	    -15.11850488	     12.47972211	     12.47972211	     -0.05836943	      5.82625761	      6.11586669	     -5.26976669	     -1.65927326	    -14.40280474	     10.82531711	     10.82531711	     20.11033713	     -0.33385363	     -5.95764350	    -10.83903307	      3.60080897	      0.84777965	    -22.78593697	    -14.57253009	     -3.71970572	     29.85675363	     46.52319981	      0.00000000	      0.00000000	     26.80840793	    -21.20487260	     -0.91300454	     99.45820167	     47.69980214	      0.00000000	      0.00000000
     19.17157143	     -2.59766751	     -2.35749473	     -2.41695080	      1.05313938	      0.91545890	      0.42209863	     26.72147416	     -3.45484746	    -15.24476582	     13.65109961	     13.65109961	     -0.11217437	      5.12011773	      5.70851570	     -5.93865676	     -2.03767918	    -14.01762468	     11.00239683	     11.00239683	     20.52309927	     -0.28592839	     -6.00491082	    -10.59456473	      3.90439875	      0.67863403	    -23.79818659	    -14.39962520	     -3.70619604	     29.48586149	     46.52696819	      0.00000000	      0.00000000	     26.88599269	    -21.23809798	     -1.06559824	     99.77467386	     47.72023530	      0.00000000	      0.00000000
     19.18321429	     -2.60262766	     -2.37459977	     -2.17480966	      1.05499246	      0.91381000	      0.42382507	     26.78202777	     -3.25774800	    -13.75255360	     15.38847890	     15.38847890	     -1.27558272	      1.86037981	      1.78505348	     -6.18759225	     -2.34497816	    -13.97626465	     11.93020034	     11.93020034	     21.64006497	     -0.02784314	     -4.72822155	    -10.41660739	      3.91932509	      0.62918793	    -24.57772216	    -14.14388551	     -4.20078969	     29.87659638	     46.51344445	      0.00000000	      0.00000000	     26.48958148	    -21.00904943	     -1.81020659	    101.56664931	     47.85847500	      0.00000000	      0.00000000
     19.19485714	     -2.54700594	     -2.46510105	     -1.84190074	      1.05695959	      0.91276043	      0.42535492	     26.72391243	     -3.22743698	    -13.42525728	     17.18102799	     17.18102799	     -1.21308064	      0.64952881	      0.85807536	     -6.65803387	     -2.67663692	    -13.70539652	     12.47144922	     12.47144922	     22.02285883	     -0.06704430	     -4.56849944	    -10.27324776	      4.07211311	      0.67643670	    -25.12301419	    -13.88628896	     -4.23771758	     29.70203581	     46.51261998	      0.00000000	      0.00000000	     26.30267699	    -20.74595344	     -2.03857992	    102.10016500	     47.89555313	      0.00000000	      0.00000000
     19.20650000	     -2.51543803	     -2.68508692	     -1.49560909	      1.05891413	      0.91214390	      0.42714650	     26.47224835	     -2.88140951	    -12.60788687	     18.37662002	     18.37662002	     -1.83558925	     -1.58583055	     -1.44939302	     -6.87732349	     -3.27510405	    -13.63411206	     13.50342722	     13.50342722	     22.90466984	      0.23912094	     -3.25280856	    -10.15932502	      4.34987196	      0.31528684	    -25.17644074	    -13.68021240	     -4.62285869	     29.70326115	     46.50467485	      0.00000000	      0.00000000	     25.33625358	    -20.57440128	     -3.08893384	    103.26735569	     48.05812410	      0.00000000	      0.00000000
     19.21814286	     -2.49271097	     -2.87546317	     -1.15991687	      1.06071655	      0.91191168	      0.42892126	     26.35106065	     -2.66758184	    -12.14925536	     19.76768749	     19.76768749	     -1.45974583	     -2.91485299	     -1.74167818	     -7.04400708	     -3.80024924	    -13.24727657	     14.48295484	     14.48295484	     23.01785940	     -0.14842678	     -3.24587771	    -10.04926417	      4.58978080	      0.44122088	    -25.21395956	    -13.40294039	     -4.57689804	     29.58376803	     46.49944708	      0.00000000	      0.00000000	     24.83075084	    -20.17531234	     -3.23177706	    103.54053396	     48.08385323	      0.00000000	      0.00000000
     19.22978571	     -2.47414933	     -3.12348041	     -0.84422047	      1.06243446	      0.91218451	      0.43086925	     26.12378935	     -2.34268228	    -11.70635892	     20.84116024	     20.84116024	     -0.98586057	     -4.20933155	     -1.82742133	     -7.05478425	     -4.44303585	    -12.90815125	     15.72298086	     15.72298086	     23.01831570	     -0.58419162	     -3.27508717	     -9.96320023	      4.89036041	      0.50685346	    -24.91660651	    -13.17151534	     -4.51602522	     29.51490161	     46.49394912	      0.00000000	      0.00000000	     24.02457479	    -19.75055545	     -3.54470835	    103.72981754	     48.11743226	      0.00000000	      0.00000000
     19.24142857	     -2.24644321	     -3.34232678	     -0.58333648	      1.06432347	      0.91330970	      0.43290999	     25.50587425	     -2.07450332	    -11.60302598	     21.56885274	     21.56885274	     -0.36924658	     -4.71179069	     -2.03238091	     -7.38572203	     -5.03178166	    -12.64689077	     16.76611826	     16.76611826	     22.74862682	     -0.93807326	     -3.31840914	    -10.13462208	      5.13706135	      0.71293176	    -24.42671567	    -12.91875080	     -4.44731172	     29.60180304	     46.48763331	      0.00000000	      0.00000000	     23.05528464	    -19.29505318	     -3.48387622	    103.56425720	     48.10879164	      0.00000000	      0.00000000
     19.25307143	     -2.41430373	     -3.65714200	     -0.30384302	      1.06562862	      0.91411673	      0.43524865	     25.34011002	     -1.57226671	    -11.14448382	     22.18786411	     22.18786411	      0.41155702	     -6.04833419	     -1.16538003	     -6.65464475	     -5.92822271	    -12.35901656	     18.92049441	     18.92049441	     22.33732310	     -1.52948074	     -4.13180132	     -9.91131530	      5.46490050	      0.30223339	    -23.16640727	    -12.94316235	     -3.99713417	     29.04324078	     46.47377329	      0.00000000	      0.00000000	     21.59123480	    -18.79836270	     -4.99890251	    103.83361849	     48.24058472	      0.00000000	      0.00000000
     19.26471429	     -2.40764404	     -3.88958333	     -0.04279393	      1.06699484	      0.91560341	      0.43758669	     24.75816143	     -1.26537960	    -11.33860761	     22.39175046	     22.39175046	      1.08629799	     -6.13730652	     -1.18326766	     -6.09218939	     -6.69080860	    -11.90985247	     21.03968663	     21.03968663	     21.67158112	     -2.32864325	     -4.66962999	     -9.89551845	      5.67946862	      0.46923640	    -22.20999792	    -12.77411120	     -3.77422277	     29.13936777	     46.45730055	      0.00000000	      0.00000000	     20.44576611	    -18.31344258	     -4.99393738	    103.40875228	     48.23587769	      0.00000000	      0.00000000
     19.27635714	     -2.31935058	     -4.12972122	      0.18358438	      1.06829455	      0.91741730	      0.44009479	     23.99085628	     -0.90439290	    -11.56174350	     22.38938995	     22.38938995	      1.74058132	     -6.16786412	     -1.19786794	     -5.43755524	     -7.50377153	    -11.45442180	     23.44857623	     23.44857623	     20.75538629	     -3.19049640	     -5.35391970	     -9.99364477	      5.87596409	      0.64167566	    -21.08579680	    -12.71820027	     -3.59952405	     29.35149157	     46.44256465	      0.00000000	      0.00000000	     19.25669612	    -17.80915644	     -4.99944896	    102.74399200	     48.22323120	      0.00000000	      0.00000000
     19.28800000	     -2.43165853	     -4.28211178	      0.39195420	      1.06929609	      0.91910989	      0.44270979	     23.39073789	     -0.62108875	    -11.83199585	     22.26600838	     22.26600838	      2.60007201	     -5.94324201	     -0.39426611	     -4.42300490	     -8.21679223	    -10.84973425	     25.83304818	     25.83304818	     17.92871054	     -5.03974727	     -9.92975637	     -9.82918686	      5.95267271	      0.23969700	    -19.24866867	    -12.82247125	     -2.25922878	     28.94881960	     46.35960128	      0.00000000	      0.00000000	     17.59255330	    -17.10940849	     -6.44862271	    101.60897947	     48.32839017	      0.00000000	      0.00000000
     19.29964286	     -2.40722127	     -4.45676678	      0.59847074	      1.07023165	      0.92101265	      0.44536583	     22.46859330	     -0.30911772	    -12.30746757	     21.81744132	     21.81744132	      3.18573326	     -5.39328800	     -0.37507728	     -3.32549146	     -8.95859729	    -10.08440128	     28.58715738	     28.58715738	     15.06322463	     -7.18804561	    -13.72429734	     -9.85885229	      6.01880873	      0.31119989	    -17.90048241	    -12.99634210	     -1.01187286	     29.56450215	     46.23505660	      0.00000000	      0.00000000	     16.19328680	    -16.67049577	     -6.30863715	    100.55206573	     48.33944293	      0.00000000	      0.00000000
     19.31128571	     -2.40327000	     -4.62892720	      0.77203407	      1.07101218	      0.92283102	      0.44817465	     21.52510018	      0.03554727	    -12.79986666	     21.26181769	     21.26181769	      3.62068948	     -4.81012253	     -0.58111778	     -1.92279250	     -9.75316202	     -9.36682438	     31.82866133	     31.82866133	     12.38236255	     -9.10232944	    -16.21923287	     -9.87248444	      6.05458307	      0.43398339	    -16.50551364	    -13.08667888	     -0.37638681	     30.47897424	     46.15079466	      0.00000000	      0.00000000	     14.98299020	    -16.10237000	     -6.49237266	     98.84098384	     48.34247791	      0.00000000	      0.00000000
     19.32292857	     -2.42053164	     -4.78305992	      0.93727215	      1.07156260	      0.92449431	      0.45097433	     20.57011029	      0.37428730	    -13.32820132	     20.61674373	     20.61674373	      3.97577789	     -4.11177573	     -0.82756894	     -0.27369340	    -10.51379573	     -8.51999744	     35.33922780	     35.33922780	      9.37449152	    -11.17252185	    -18.44630844	     -9.88355880	      6.06630875	      0.59364986	    -15.09887243	    -13.22948255	      0.06912591	     31.57539118	     46.07499747	      0.00000000	      0.00000000	     13.78242352	    -15.56942171	     -6.42832053	     96.92417839	     48.32087565	      0.00000000	      0.00000000
